<?xml version="1.0" encoding="iso-8859-1"?>
<!-- Generator: Adobe Illustrator 19.0.0, SVG Export Plug-In . SVG Version: 6.00 Build 0)  -->
<svg version="1.1" id="Capa_1" xmlns="http://www.w3.org/2000/svg" xmlns:xlink="http://www.w3.org/1999/xlink" x="0px" y="0px"
	 viewBox="0 0 512 512" style="enable-background:new 0 0 512 512;" xml:space="preserve">
<path id="SVGCleanerId_0" style="fill:#FFD4B0;" d="M247.096,459.034h35.31c14.627,0,26.483-11.855,26.483-26.483l0,0
	c0-14.627-11.855-26.483-26.483-26.483h-44.138l-35.31,26.483h-52.966v61.793h207.581c14.045,0,27.516-5.579,37.447-15.51
	l48.199-48.199c4.423-4.431,6.956-10.408,7.062-16.675v-0.486c0.221-13.612-10.628-24.832-24.249-25.062c-0.132,0-0.265,0-0.388,0
	h-0.406c-6.735-0.026-13.206,2.648-17.955,7.433c-14.468,14.574-45.427,45.533-45.427,45.533h-61.793"/>
<g>
	<path id="SVGCleanerId_0_1_" style="fill:#FFD4B0;" d="M247.096,459.034h35.31c14.627,0,26.483-11.855,26.483-26.483l0,0
		c0-14.627-11.855-26.483-26.483-26.483h-44.138l-35.31,26.483h-52.966v61.793h207.581c14.045,0,27.516-5.579,37.447-15.51
		l48.199-48.199c4.423-4.431,6.956-10.408,7.062-16.675v-0.486c0.221-13.612-10.628-24.832-24.249-25.062c-0.132,0-0.265,0-0.388,0
		h-0.406c-6.735-0.026-13.206,2.648-17.955,7.433c-14.468,14.574-45.427,45.533-45.427,45.533h-61.793"/>
</g>
<path style="fill:#2DB357;" d="M328.151,36.114l-10.434,52.162H194.13l-10.434-52.162c-3.275-16.349,7.327-32.256,23.684-35.531
	C209.331,0.194,211.318,0,213.304,0l0,0c10.337,0,20.242,4.105,27.551,11.414l0,0c3.999,3.999,9.419,6.241,15.069,6.241l0,0
	c5.65,0,11.07-2.242,15.069-6.241l0,0C278.301,4.105,288.215,0,298.543,0l0,0c16.675,0,30.19,13.515,30.19,30.19
	C328.742,32.177,328.548,34.163,328.151,36.114z"/>
<rect x="61.716" y="414.897" style="fill:#4DB5FF;" width="88.276" height="97.103"/>
<rect x="105.854" y="467.862" style="fill:#235087;" width="17.655" height="17.655"/>
<circle style="fill:#2DB357;" cx="255.923" cy="238.345" r="132.414"/>
<g>
	<path style="fill:#045D32;" d="M264.751,291.31h-17.655c-14.627,0-26.483-11.855-26.483-26.483h17.655
		c0,4.873,3.955,8.828,8.828,8.828h17.655c4.873,0,8.828-3.955,8.828-8.828V256c0-4.873-3.955-8.828-8.828-8.828h-17.655
		c-14.627,0-26.483-11.855-26.483-26.483v-8.828c0-14.627,11.855-26.483,26.483-26.483h17.655c14.627,0,26.483,11.855,26.483,26.483
		h-17.655c0-4.873-3.955-8.828-8.828-8.828h-17.655c-4.873,0-8.828,3.955-8.828,8.828v8.828c0,4.873,3.955,8.828,8.828,8.828h17.655
		c14.627,0,26.483,11.855,26.483,26.483v8.828C291.234,279.455,279.378,291.31,264.751,291.31z"/>
	<rect x="247.096" y="167.724" style="fill:#045D32;" width="17.655" height="26.483"/>
	<rect x="247.096" y="282.483" style="fill:#045D32;" width="17.655" height="26.483"/>
</g>
<path style="fill:#1F9342;" d="M340.306,136.307c46.583,56.373,38.647,139.838-17.726,186.421
	c-48.958,40.457-119.746,40.457-168.695,0c46.583,56.373,130.048,64.309,186.421,17.726s64.309-130.048,17.726-186.421
	C352.7,147.571,346.759,141.639,340.306,136.307z"/>
<path style="fill:#EDC4A2;" d="M357.573,494.345c14.045,0,27.516-5.579,37.447-15.51l45.233-45.233
	c-61.952,29.608-127.885,50.07-195.725,60.743H357.573z"/>
<path style="fill:#4D97FF;" d="M123.51,480.927v4.59h-7.203c-16.587,9.957-35.293,15.863-54.59,17.214V512h88.276v-56.126
	C142.445,465.487,133.529,473.927,123.51,480.927z"/>
<path style="fill:#163768;" d="M123.51,485.517v-4.59c-2.33,1.633-4.758,3.125-7.203,4.59H123.51z"/>
<path style="fill:#045D32;" d="M176.475,88.276h158.897c9.754,0,17.655,7.901,17.655,17.655l0,0c0,9.754-7.901,17.655-17.655,17.655
	H176.475c-9.754,0-17.655-7.901-17.655-17.655l0,0C158.82,96.177,166.729,88.276,176.475,88.276z"/>
<path style="fill:#05492C;" d="M343.97,90.598c-1.174,18.52-16.516,32.953-35.081,32.989h26.483
	c9.719,0.026,17.62-7.83,17.655-17.549C353.044,99.619,349.575,93.714,343.97,90.598z"/>
<path style="fill:#1F9342;" d="M193.618,85.707l0.512,2.569h123.586l10.434-52.162c1.298-6.462,0.424-13.162-2.489-19.076
	C294.076,58.447,245.666,83.624,193.618,85.707z"/>
<path style="fill:#EDC4A2;" d="M306.055,420.864c-7.221,11.873-17.417,21.663-29.581,28.381c-8.236,4.493-17.205,7.486-26.483,8.828
	l-2.895,0.962h35.31c14.521,0.106,26.377-11.591,26.483-26.112C308.924,428.738,307.953,424.598,306.055,420.864z"/>
<path style="fill:#FFD4B0;" d="M249.956,458.081c9.278-1.342,18.247-4.334,26.483-8.828L249.956,458.081z"/>
<g>
</g>
<g>
</g>
<g>
</g>
<g>
</g>
<g>
</g>
<g>
</g>
<g>
</g>
<g>
</g>
<g>
</g>
<g>
</g>
<g>
</g>
<g>
</g>
<g>
</g>
<g>
</g>
<g>
</g>
</svg>
